<?xml version="1.0" standalone="no"?>
<!DOCTYPE svg PUBLIC "-//W3C//DTD SVG 20010904//EN"
 "http://www.w3.org/TR/2001/REC-SVG-20010904/DTD/svg10.dtd">
<svg version="1.0" xmlns="http://www.w3.org/2000/svg"
 width="971.000000pt" height="971.000000pt" viewBox="0 0 971.000000 971.000000"
 preserveAspectRatio="xMidYMid meet">
<metadata>
Created by potrace 1.14, written by Peter Selinger 2001-2017
</metadata>
<g transform="translate(0.000000,971.000000) scale(0.100000,-0.100000)"
fill="#000000" stroke="none">
<path d="M1146 9689 c-282 -37 -545 -167 -751 -374 -184 -183 -295 -388 -362
-665 -17 -71 -18 -255 -21 -3735 -2 -2715 0 -3685 8 -3755 71 -579 494 -1028
1074 -1138 85 -16 335 -17 3771 -17 l3680 0 102 23 c288 63 512 187 701 386
171 181 276 384 334 649 l23 102 0 3680 c0 3436 -1 3686 -17 3771 -95 502
-453 899 -930 1033 -191 54 21 51 -3908 50 -2031 -1 -3665 -5 -3704 -10z
m2654 -1039 l0 -830 -835 0 -835 0 0 830 0 830 835 0 835 0 0 -830z m1900 0
l0 -830 -840 0 -840 0 0 830 0 830 840 0 840 0 0 -830z m1880 120 l0 -710
-825 0 -824 0 -4 -122 c-1 -68 -4 252 -5 710 l-2 832 830 0 830 0 0 -710z
m-3780 -2025 l0 -835 -835 0 -835 0 0 835 0 835 835 0 835 0 0 -835z m1900 0
l0 -835 -840 0 -840 0 0 835 0 835 840 0 840 0 0 -835z m1880 0 l0 -835 -830
0 -830 0 0 835 0 835 830 0 830 0 0 -835z m1910 0 l0 -835 -835 0 -835 0 0
835 0 835 835 0 835 0 0 -835z m-7600 -1770 l0 -715 -825 0 -825 0 0 -120 0
-120 828 -3 827 -2 -832 -3 -833 -2 0 840 0 840 830 0 830 0 0 -715z m3810
-125 l0 -840 -840 0 -840 0 0 840 0 840 840 0 840 0 0 -840z m3790 0 l0 -840
-835 0 -835 0 0 840 0 840 835 0 835 0 0 -840z m-7600 -1890 l0 -830 -830 0
-830 0 0 830 0 830 830 0 830 0 0 -830z m1908 -2 c-1 -458 -4 -780 -5 -715 -3
95 -6 117 -18 117 -8 0 -15 6 -16 13 0 9 -2 9 -6 0 -6 -17 -33 -17 -34 0 0 9
-2 9 -6 0 -6 -17 -33 -17 -34 0 0 9 -2 9 -6 0 -6 -17 -33 -17 -34 0 0 9 -2 9
-6 0 -6 -17 -33 -17 -34 0 0 9 -2 9 -6 0 -6 -17 -33 -17 -34 0 0 10 -2 10 -6
0 -2 -7 -11 -13 -19 -13 -8 0 -14 6 -15 13 0 9 -2 9 -6 0 -6 -17 -33 -17 -34
0 0 9 -2 9 -6 0 -6 -17 -33 -17 -34 0 0 9 -2 9 -6 0 -6 -17 -33 -17 -34 0 0
10 -2 10 -6 0 -2 -7 -11 -13 -19 -13 -8 0 -14 6 -15 13 0 10 -2 10 -6 0 -2 -7
-11 -13 -19 -13 -8 0 -14 6 -15 13 0 10 -2 10 -6 0 -2 -7 -11 -13 -19 -13 -8
0 -14 6 -15 13 0 9 -2 9 -6 0 -6 -17 -33 -17 -34 0 0 9 -2 9 -6 0 -6 -17 -33
-17 -34 0 0 9 -2 9 -6 0 -6 -17 -33 -17 -34 0 0 10 -2 10 -6 0 -2 -7 -11 -13
-19 -13 -8 0 -14 6 -15 13 0 9 -2 9 -6 0 -6 -17 -33 -17 -34 0 0 9 -2 9 -6 0
-6 -17 -33 -17 -34 0 0 10 -2 10 -6 0 -2 -7 -11 -13 -19 -13 -8 0 -14 6 -15
13 0 9 -2 9 -6 0 -6 -17 -33 -17 -34 0 0 10 -2 10 -6 0 -2 -7 -11 -13 -19 -13
-8 0 -14 6 -15 13 0 9 -2 9 -6 0 -6 -17 -33 -17 -34 0 0 10 -2 10 -6 0 -2 -7
-11 -13 -19 -13 -8 0 -14 6 -15 13 0 9 -2 9 -6 0 -6 -17 -33 -17 -34 0 0 10
-2 10 -6 0 -2 -7 -11 -13 -19 -13 -8 0 -14 6 -15 13 0 10 -2 10 -6 0 -2 -7
-11 -13 -19 -13 -8 0 -14 6 -15 13 0 9 -2 9 -6 0 -6 -17 -33 -17 -34 0 0 9 -2
9 -6 0 -6 -17 -33 -17 -34 0 0 9 -2 9 -6 0 -6 -17 -33 -17 -34 0 0 10 -2 10
-6 0 -2 -7 -11 -13 -19 -13 -8 0 -14 6 -15 13 0 9 -2 9 -6 0 -6 -17 -33 -17
-34 0 0 9 -2 9 -6 0 -6 -17 -33 -17 -34 0 0 9 -2 9 -6 0 -6 -17 -33 -17 -34 0
0 9 -2 9 -6 0 -6 -17 -33 -17 -34 0 0 10 -2 10 -6 0 -2 -7 -11 -13 -19 -13 -8
0 -14 6 -15 13 0 9 -2 9 -6 0 -6 -17 -33 -17 -34 0 0 10 -2 10 -6 0 -2 -7 -11
-13 -19 -13 -8 0 -14 6 -15 13 0 9 -2 9 -6 0 -6 -17 -33 -17 -34 0 0 9 -2 9
-6 0 -6 -17 -33 -17 -34 0 0 10 -2 10 -6 0 -6 -16 -33 -17 -33 -1 0 6 -3 8 -7
4 -5 -4 -11 -62 -14 -129 -3 -67 -6 253 -7 711 l-2 832 835 0 835 0 -2 -832z
m1902 2 l0 -830 -840 0 -840 0 0 830 0 830 840 0 840 0 0 -830z m1880 0 l0
-830 -830 0 -830 0 0 830 0 830 830 0 830 0 0 -830z m-3780 -1905 l0 -835
-835 0 -835 0 0 835 0 835 835 0 835 0 0 -835z m1900 0 l0 -835 -840 0 -840 0
0 835 0 835 840 0 840 0 0 -835z m1880 136 c0 -385 -3 -707 -6 -716 -5 -13 -8
-14 -15 -3 -7 10 -9 10 -9 -2 0 -13 -1 -13 -10 0 -6 10 -10 11 -10 3 0 -7 -7
-13 -15 -13 -8 0 -15 6 -16 13 0 8 -2 8 -6 -2 -5 -11 -7 -11 -14 0 -7 12 -9
11 -9 -1 0 -13 -1 -13 -10 0 -6 10 -10 11 -10 3 0 -7 -7 -13 -15 -13 -8 0 -15
6 -16 13 0 8 -2 8 -6 -2 -5 -11 -7 -11 -14 0 -7 12 -9 11 -9 -1 0 -13 -1 -13
-10 0 -6 10 -10 11 -10 3 0 -7 -7 -13 -15 -13 -8 0 -15 6 -16 13 0 8 -2 8 -6
-2 -5 -11 -7 -11 -14 0 -7 12 -9 11 -9 -1 0 -13 -1 -13 -10 0 -6 10 -10 11
-10 3 0 -7 -7 -13 -15 -13 -8 0 -15 6 -16 13 0 8 -2 8 -6 -2 -5 -11 -7 -11
-14 0 -7 12 -9 11 -9 -1 0 -13 -1 -13 -10 0 -6 10 -10 11 -10 3 0 -7 -7 -13
-15 -13 -8 0 -15 6 -16 13 0 8 -2 8 -6 -2 -5 -11 -7 -11 -14 0 -7 12 -9 11 -9
-1 0 -13 -1 -13 -10 0 -6 10 -10 11 -10 3 0 -7 -7 -13 -15 -13 -8 0 -15 6 -16
13 0 8 -2 8 -6 -2 -5 -11 -7 -11 -14 0 -7 12 -9 11 -9 -1 0 -13 -1 -13 -10 0
-6 10 -10 11 -10 3 0 -7 -7 -13 -15 -13 -8 0 -15 6 -16 13 0 8 -2 8 -6 -2 -5
-11 -7 -11 -14 0 -7 12 -9 11 -9 -1 0 -13 -1 -13 -10 0 -6 10 -10 11 -10 3 0
-7 -7 -13 -15 -13 -8 0 -15 6 -16 13 0 8 -2 8 -6 -2 -5 -11 -7 -11 -14 0 -7
12 -9 11 -9 -1 0 -13 -1 -13 -10 0 -6 10 -10 11 -10 3 0 -7 -7 -13 -15 -13 -8
0 -15 6 -16 13 0 8 -2 8 -6 -2 -5 -11 -7 -11 -14 0 -7 12 -9 11 -9 -1 0 -13
-1 -13 -10 0 -6 10 -10 11 -10 3 0 -7 -7 -13 -15 -13 -8 0 -15 6 -16 13 0 8
-2 8 -6 -2 -5 -11 -7 -11 -14 0 -7 12 -9 11 -9 -1 0 -13 -1 -13 -10 0 -6 10
-10 11 -10 3 0 -7 -7 -13 -15 -13 -8 0 -15 6 -16 13 0 8 -2 8 -6 -2 -5 -11 -7
-11 -14 0 -7 12 -9 11 -9 -1 0 -13 -1 -13 -10 0 -6 10 -10 11 -10 3 0 -7 -7
-13 -15 -13 -8 0 -15 6 -16 13 0 8 -2 8 -6 -2 -5 -11 -7 -11 -14 0 -7 12 -9
11 -9 -1 0 -13 -1 -13 -10 0 -6 10 -10 11 -10 3 0 -7 -7 -13 -15 -13 -8 0 -15
6 -16 13 0 8 -2 8 -6 -2 -5 -11 -7 -11 -14 0 -7 12 -9 11 -9 -1 0 -13 -1 -13
-10 0 -6 10 -10 11 -10 3 0 -7 -7 -13 -15 -13 -8 0 -15 6 -16 13 0 8 -2 8 -6
-2 -5 -11 -7 -11 -14 0 -7 12 -9 11 -9 -1 0 -13 -1 -13 -10 0 -6 10 -10 11
-10 3 0 -7 -7 -13 -15 -13 -8 0 -15 6 -16 13 0 8 -2 8 -6 -2 -5 -11 -7 -11
-14 0 -7 12 -9 11 -9 -1 0 -13 -1 -13 -10 0 -6 10 -10 11 -10 3 0 -7 -7 -13
-15 -13 -8 0 -15 6 -16 13 0 8 -2 8 -6 -2 -5 -11 -7 -11 -14 0 -7 12 -9 11 -9
-1 0 -13 -1 -13 -10 0 -6 10 -10 11 -10 3 0 -7 -7 -13 -15 -13 -8 0 -15 6 -16
13 0 8 -2 8 -6 -2 -5 -11 -7 -11 -14 0 -7 12 -9 11 -9 -1 0 -13 -1 -13 -10 0
-6 10 -10 11 -10 3 0 -7 -7 -13 -15 -13 -8 0 -15 6 -16 13 0 8 -2 8 -6 -2 -5
-11 -7 -11 -14 0 -6 10 -9 11 -9 2 0 -7 -7 -13 -15 -13 -8 0 -15 6 -16 13 0 8
-2 8 -6 -2 -5 -11 -7 -11 -14 0 -7 12 -9 11 -9 -1 0 -13 -1 -13 -10 0 -6 10
-10 11 -10 3 0 -7 -7 -13 -15 -13 -8 0 -15 6 -15 13 0 8 -4 7 -10 -3 -9 -13
-10 -13 -10 0 0 13 -1 13 -10 0 -7 -11 -10 -12 -10 -2 0 10 -3 10 -15 -2 -12
-11 -15 -40 -15 -125 l0 -111 828 -3 827 -2 -832 -3 -833 -2 0 835 0 835 830
0 830 0 0 -699z"/>
<path d="M7830 4140 l0 -120 825 0 825 0 0 120 0 120 -825 0 -825 0 0 -120z"/>
</g>
</svg>
